<?xml version="1.0" encoding="utf-8"?>
<!-- Generator: Adobe Illustrator 19.2.1, SVG Export Plug-In . SVG Version: 6.00 Build 0)  -->
<svg version="1.1" id="Layer_1" xmlns="http://www.w3.org/2000/svg" xmlns:xlink="http://www.w3.org/1999/xlink" x="0px" y="0px"
	 viewBox="0 0 500 500" style="enable-background:new 0 0 500 500;" xml:space="preserve">
<style type="text/css">
	.st0{fill:#310E31;}
	.st1{fill:#9A333E;}
	.st2{fill:none;stroke:#000000;}
</style>
<g>
	<g>
		<path class="st0" d="M91.6,35.1c-0.5,0.9-1.1,1.3-2,1.3c-0.7,0-1.5-0.5-2.6-1.4c-1-0.9-2.5-2-4.2-3.1c-1.8-1.1-4-2.2-6.7-3.2
			c-2.7-1-6-1.4-9.9-1.4c-3.9,0-7.4,0.6-10.3,1.7c-3,1.1-5.5,2.6-7.5,4.6c-2,1.9-3.5,4.2-4.6,6.7c-1,2.5-1.6,5.2-1.6,8
			c0,3.7,0.8,6.7,2.3,9.1c1.5,2.4,3.6,4.4,6.1,6.1c2.5,1.7,5.4,3.1,8.6,4.2c3.2,1.1,6.5,2.3,9.9,3.4c3.4,1.1,6.7,2.3,9.9,3.7
			c3.2,1.3,6.1,3,8.6,5.1c2.5,2,4.6,4.5,6.1,7.5c1.5,3,2.3,6.7,2.3,11.1c0,4.5-0.8,8.8-2.3,12.8c-1.5,4-3.8,7.5-6.7,10.4
			c-2.9,2.9-6.6,5.3-10.8,7c-4.3,1.7-9.1,2.6-14.6,2.6c-7.1,0-13.2-1.3-18.4-3.8c-5.1-2.5-9.6-6-13.5-10.3l2.1-3.4
			c0.6-0.8,1.3-1.1,2.1-1.1c0.5,0,1,0.3,1.8,0.9c0.7,0.6,1.6,1.4,2.6,2.2c1,0.9,2.2,1.9,3.7,2.9c1.4,1,3.1,2,5,2.9
			c1.9,0.9,4,1.6,6.5,2.2s5.2,0.9,8.3,0.9c4.3,0,8.1-0.6,11.4-1.9c3.4-1.3,6.2-3.1,8.5-5.3c2.3-2.2,4.1-4.9,5.3-8
			c1.2-3.1,1.8-6.4,1.8-9.9c0-3.8-0.8-6.9-2.3-9.4c-1.5-2.5-3.6-4.5-6.1-6.2c-2.5-1.6-5.4-3-8.6-4.2c-3.2-1.1-6.5-2.2-9.9-3.3
			c-3.4-1.1-6.7-2.3-9.9-3.6c-3.2-1.3-6.1-3-8.6-5.1c-2.5-2.1-4.6-4.6-6.1-7.7C35.8,57,35,53.2,35,48.6c0-3.6,0.7-7.1,2.1-10.4
			c1.4-3.4,3.4-6.3,6-8.9c2.6-2.6,5.9-4.6,9.8-6.2c3.9-1.5,8.3-2.3,13.3-2.3c5.6,0,10.6,0.9,15,2.7c4.4,1.8,8.5,4.5,12.2,8.2
			L91.6,35.1z"/>
		<path class="st0" d="M134.7,131c-5.1,0-9.1-1.4-12-4.3c-2.9-2.8-4.3-7.2-4.3-13.2V61.8h-10.9c-0.6,0-1-0.2-1.4-0.5
			s-0.5-0.7-0.5-1.3v-2.8l13-0.9l1.8-27.1c0.1-0.5,0.3-0.9,0.6-1.2c0.3-0.4,0.7-0.5,1.3-0.5h3.4v28.9h23.9v5.4h-23.9v51.4
			c0,2.1,0.3,3.9,0.8,5.4c0.5,1.5,1.3,2.7,2.2,3.7c0.9,1,2,1.7,3.3,2.1c1.3,0.5,2.6,0.7,4.1,0.7c1.8,0,3.4-0.3,4.7-0.8
			c1.3-0.5,2.5-1.1,3.4-1.8c1-0.6,1.8-1.2,2.4-1.8s1.1-0.8,1.4-0.8c0.4,0,0.8,0.3,1.2,0.8l2,3.2c-1.9,2.1-4.4,3.8-7.4,5.1
			C141,130.3,137.9,131,134.7,131z"/>
		<path class="st0" d="M195.6,52.8c4.3,0,8.2,0.7,11.9,2.2c3.7,1.5,6.8,3.6,9.5,6.4c2.7,2.8,4.8,6.3,6.4,10.4
			c1.5,4.1,2.3,8.8,2.3,14.2c0,1.1-0.2,1.9-0.5,2.3c-0.3,0.4-0.8,0.6-1.5,0.6h-55.2v1.4c0,5.7,0.7,10.7,2,15
			c1.3,4.3,3.2,7.9,5.6,10.9c2.4,2.9,5.4,5.1,8.8,6.6c3.5,1.5,7.3,2.2,11.6,2.2c3.8,0,7.1-0.4,9.9-1.3s5.1-1.8,7-2.8
			c1.9-1,3.4-2,4.5-2.8c1.1-0.8,1.9-1.3,2.4-1.3c0.7,0,1.2,0.3,1.5,0.8l2,2.4c-1.2,1.5-2.8,2.9-4.8,4.3c-2,1.3-4.2,2.5-6.7,3.4
			c-2.5,0.9-5.1,1.7-7.9,2.2c-2.8,0.6-5.7,0.8-8.5,0.8c-5.2,0-9.9-0.9-14.2-2.7c-4.3-1.8-7.9-4.4-11-7.9c-3-3.5-5.4-7.7-7-12.7
			c-1.7-5-2.5-10.7-2.5-17.2c0-5.4,0.8-10.4,2.3-15c1.5-4.6,3.8-8.6,6.7-11.9c2.9-3.3,6.5-5.9,10.7-7.8
			C185.4,53.7,190.2,52.8,195.6,52.8z M195.7,58.2c-3.9,0-7.4,0.6-10.5,1.8c-3.1,1.2-5.8,3-8,5.3c-2.3,2.3-4.1,5-5.5,8.2
			c-1.4,3.2-2.3,6.8-2.8,10.7h50.3c0-4.1-0.6-7.7-1.7-10.9c-1.1-3.2-2.8-6-4.8-8.2c-2.1-2.2-4.6-3.9-7.4-5.1
			C202.3,58.8,199.2,58.2,195.7,58.2z"/>
		<path class="st0" d="M245.4,156.6V54h4c1.3,0,2,0.6,2.2,1.9l0.7,11.7c3.4-4.6,7.3-8.2,11.8-10.9c4.5-2.7,9.6-4,15.2-4
			c9.3,0,16.5,3.2,21.7,9.7c5.2,6.5,7.8,16.1,7.8,29c0,5.5-0.7,10.7-2.2,15.5c-1.4,4.8-3.6,9-6.4,12.5c-2.8,3.5-6.3,6.3-10.4,8.3
			c-4.1,2-8.8,3-14.1,3c-5.1,0-9.6-0.9-13.3-2.8c-3.8-1.9-7-4.6-9.8-8.3v36.9H245.4z M277.3,58.6c-5,0-9.6,1.3-13.6,3.9
			c-4.1,2.6-7.7,6.2-10.9,10.8v40c2.9,4.4,6.1,7.4,9.6,9.2c3.5,1.8,7.5,2.6,12.1,2.6c4.5,0,8.4-0.8,11.7-2.4
			c3.4-1.6,6.2-3.9,8.4-6.9c2.3-3,4-6.5,5.1-10.7c1.1-4.1,1.7-8.7,1.7-13.7c0-11.3-2.1-19.6-6.2-24.9
			C291,61.2,285.1,58.6,277.3,58.6z"/>
	</g>
	<g>
		<path class="st0" d="M191.5,360.4h35.7v7.2c0,1-0.3,1.8-0.9,2.4c-0.6,0.6-1.5,0.9-2.8,0.9h-32v56h-11.6v-56H87.6
			c-1.4,0-2.4-0.3-3.2-0.9c-0.7-0.6-1.2-1.4-1.5-2.4l-1.2-6.5l98.1-129.7h11.7V360.4z M179.9,258.2c0-1.6,0.1-3.3,0.2-5.1
			c0.1-1.8,0.3-3.7,0.5-5.7L96,360.4h83.9V258.2z"/>
	</g>
	<polygon class="st1" points="476.7,277.9 359.3,219.3 359.3,336.6 	"/>
	<path class="st2" d="M417.5,574.6"/>
</g>
</svg>
